# Tiled2Unity generated file. Do not modify by hand.
# Wavefront file for 'LV01_mesh_0004.obj'

# Vertices (Count = 32)
v -992 -32 0
v -1056 -32 0
v -1056 0 0
v -992 0 0
v -1024 -48 0
v -1088 -48 0
v -1088 -16 0
v -1024 -16 0
v -1056 -64 0
v -1120 -64 0
v -1120 -32 0
v -1056 -32 0
v -1088 -80 0
v -1152 -80 0
v -1152 -48 0
v -1088 -48 0
v -960 -48 0
v -1024 -48 0
v -1024 -16 0
v -960 -16 0
v -992 -64 0
v -1056 -64 0
v -1056 -32 0
v -992 -32 0
v -1024 -80 0
v -1088 -80 0
v -1088 -48 0
v -1024 -48 0
v -1056 -96 0
v -1120 -96 0
v -1120 -64 0
v -1056 -64 0

# Texture cooridinates (Count = 4)
vt 0.5 0.1666667
vt 0.625 0.1666667
vt 0.625 0.3333333
vt 0.5 0.3333333

# Normal
vn 0 0 -1

# Mesh description
g LV01_mesh_0004

# Faces
f 1/1/1 2/2/1 3/3/1 4/4/1
f 5/1/1 6/2/1 7/3/1 8/4/1
f 9/1/1 10/2/1 11/3/1 12/4/1
f 13/1/1 14/2/1 15/3/1 16/4/1
f 17/1/1 18/2/1 19/3/1 20/4/1
f 21/1/1 22/2/1 23/3/1 24/4/1
f 25/1/1 26/2/1 27/3/1 28/4/1
f 29/1/1 30/2/1 31/3/1 32/4/1

